<?xml version="1.0" encoding="UTF-8"?><svg id="b" xmlns="http://www.w3.org/2000/svg" width="127.74" height="106.43" viewBox="0 0 127.74 106.43"><g id="c"><path d="m109.96,103.91h-2.42c-1.74,0-3.24-1.23-3.58-2.94-.22-1.1-2.01-10.96,3.1-17.2,1.75-2.14,5.06-4.69,10.86-4.69h2.05c1.64,0,3.08,1.1,3.52,2.68.3,1.08,2.8,10.75-2.05,17.13-1.74,2.29-5.14,5.02-11.47,5.02Zm6.97-17.48c-1.88.16-3.26.81-4.21,1.96-1.7,2.07-2.01,5.53-1.91,8.18,3.35-.2,4.43-1.61,4.8-2.09,1.56-2.04,1.61-5.49,1.32-8.05Z" fill="#fff" stroke-width="0"/><path d="m37.05,106.43c-.76,0-1.48-.24-2.07-.64-.59.41-1.31.64-2.07.64h-5.22c-1.7,0-3.18-1.18-3.56-2.84l-4.05-17.62c-.25-1.08,0-2.22.7-3.09.69-.87,1.75-1.38,2.86-1.38h5.07c.76,0,1.48.24,2.07.64.59-.41,1.31-.64,2.07-.64h5.04c.7,0,1.36.2,1.92.55.56-.35,1.22-.55,1.92-.55h4.79c1.12,0,2.18.52,2.88,1.4.69.88.94,2.04.67,3.13l-4.35,17.62c-.4,1.63-1.87,2.78-3.55,2.78h-5.14Z" fill="#fff" stroke-width="0"/><path d="m48.84,106.43c-2.02,0-3.65-1.64-3.65-3.66v-17.62c0-2.02,1.64-3.66,3.65-3.66h11.43c2.02,0,3.65,1.64,3.65,3.66v3.86c0,.68-.19,1.32-.51,1.87.09.31.13.64.13.98v3.82c0,.31-.04.61-.11.9.53.64.86,1.46.86,2.35v3.86c0,2.02-1.64,3.66-3.65,3.66h-11.8Z" fill="#fff" stroke-width="0"/><path d="m72.9,106.43c-1.17,0-2.25-.56-2.94-1.48-.67.9-1.73,1.48-2.94,1.48h-4.31c-2.02,0-3.65-1.64-3.65-3.66v-17.62c0-2.02,1.64-3.66,3.65-3.66h5.57c1.01,0,1.96.42,2.64,1.13.67-.7,1.6-1.13,2.64-1.13h4.31c2.02,0,3.65,1.64,3.65,3.66v17.62c0,2.02-1.64,3.66-3.65,3.66h-4.98Z" fill="#fff" stroke-width="0"/><path d="m91.54,106.24c-2.02,0-3.65-1.64-3.65-3.66v-17.25c0-2.02,1.64-3.66,3.65-3.66h8.5c2.02,0,3.65,1.64,3.65,3.66v1.81c0,1.19-.57,2.26-1.46,2.92.67.66,1.09,1.59,1.09,2.61v1.79c0,1.21-.59,2.28-1.49,2.94,1.31.56,2.22,1.85,2.22,3.36v1.81c0,2.02-1.64,3.66-3.65,3.66h-8.87Z" fill="#fff" stroke-width="0"/><path d="m102.55,106.34c-1.74,0-3.24-1.23-3.58-2.94-.22-1.1-2.01-10.96,3.1-17.2,1.75-2.14,5.06-4.69,10.86-4.69h2.04c1.64,0,3.08,1.09,3.52,2.68.3,1.08,2.8,10.75-2.05,17.14-1.74,2.29-5.14,5.02-11.47,5.02h-2.42Zm7.72-15.12c-.4.23-.75.52-1.05.87-1.03,1.21-1.48,3.01-1.63,4.68.84-.4,1.23-.89,1.41-1.12.91-1.15,1.23-2.86,1.27-4.44Z" fill="#fff" stroke-width="0"/><path d="m86.08,106.25c-2.16,0-4.05-.8-5.33-2.26-1.22-1.35-1.84-3.28-1.84-5.85v-7.58c-1.44-.49-2.47-1.85-2.47-3.46v-1.81c0-1.6,1.03-2.97,2.47-3.46v-.8c0-1.66,1.12-3.11,2.72-3.53l2.35-.62c.31-.08.62-.12.93-.12.8,0,1.58.26,2.23.76.9.69,1.42,1.76,1.42,2.89v1.22h.69c2.02,0,3.65,1.64,3.65,3.66v1.81c0,2.02-1.64,3.66-3.65,3.66h-.69v6.04c.58.07,1.14.28,1.64.63.93.64,1.48,1.67,1.55,2.8l.11,1.82c.1,1.58-.84,3.04-2.32,3.62-.97.38-2.17.58-3.47.58Z" fill="#fff" stroke-width="0"/><path d="m104.64,105.61c-.74,0-1.46-.22-2.08-.65l-1.49-1.03c-1.66-1.15-2.08-3.42-.93-5.08l5.69-8.26c.71-1.03,1.85-1.58,3.01-1.58.72,0,1.44.21,2.07.65l1.49,1.03c.8.55,1.35,1.4,1.52,2.35.18.95-.04,1.94-.59,2.74l-5.69,8.26c-.55.8-1.4,1.34-2.35,1.52-.22.04-.44.06-.66.06Z" fill="#fff" stroke-width="0"/><path d="m17.97,106.43c-2.58,0-4.95-.95-6.48-2.61-1.58-1.67-2.36-4.09-2.36-7.39v-4.47c-1.45-.48-2.5-1.85-2.5-3.47v-3.29c0-1.61,1.05-2.98,2.5-3.47v-.17c0-1.69,1.16-3.16,2.8-3.55l4.33-1.05c.28-.07.57-.1.86-.1.81,0,1.61.27,2.26.78.88.69,1.39,1.75,1.39,2.87v1.02h.55c2.02,0,3.65,1.64,3.65,3.66v3.29c0,2.02-1.64,3.66-3.65,3.66h-.55v3.16c.11-.01.22-.02.32-.02.78,0,1.54.25,2.18.72.9.67,1.44,1.71,1.47,2.84l.09,3.37c.04,1.56-.92,2.98-2.38,3.52-1.18.44-2.78.68-4.49.68Z" fill="#fff" stroke-width="0"/><path d="m119.96,82.74h-2.05c-13.89,0-10.38,17.52-10.38,17.52h2.42c14.87,0,10-17.52,10-17.52" fill="#71a753" stroke-width="0"/><path d="m27.69,102.78l-4.05-17.62h5.07l1.01,6.54c.32,2.05.64,4.39.91,6.2h.05c.28-1.99.65-4.1,1.03-6.26l1.14-6.48h5.05l1.09,6.79c.33,2.03.55,3.83.8,5.82h.05c.24-1.98.56-4.06.88-6.14l1.03-6.48h4.79l-4.35,17.62h-5.14l-1.19-6.9c-.26-1.54-.5-3.18-.71-5.28h-.05c-.3,2.08-.53,3.73-.85,5.3l-1.33,6.88h-5.22Z" fill="#221f1f" stroke-width="0"/><polygon points="59.9 95.67 53.56 95.67 53.56 98.92 60.64 98.92 60.64 102.78 48.84 102.78 48.84 85.15 60.27 85.15 60.27 89.01 53.56 89.01 53.56 91.85 59.9 91.85 59.9 95.67" fill="#221f1f" stroke-width="0"/><path d="m62.71,102.78v-17.62h5.57l2.8,5.41c.95,1.75,1.99,4.11,2.76,6.18h.07c-.26-2.32-.35-4.78-.35-7.42v-4.16h4.31v17.62h-4.98l-2.99-5.86c-.98-1.87-2.12-4.24-2.97-6.37h-.09c.12,2.38.18,5.03.18,7.9v4.33h-4.31Z" fill="#221f1f" stroke-width="0"/><polygon points="99.67 94.47 93.69 94.47 93.69 100.78 100.41 100.78 100.41 102.59 91.54 102.59 91.54 85.34 100.04 85.34 100.04 87.15 93.69 87.15 93.69 92.68 99.67 92.68 99.67 94.47" fill="#221f1f" stroke-width="0"/><path d="m114.97,85.17h-2.04c-13.89,0-10.38,17.52-10.38,17.52h2.42c14.87,0,10-17.52,10-17.52m-10.93,15.92s-2.32-14.25,9.47-14.25c0,0,3.45,14.25-9.47,14.25" fill="#221f1f" stroke-width="0"/><path d="m84.92,80.41v4.88h4.34v1.81h-4.34v10.95c0,1.64.47,2.57,1.81,2.57.62,0,1.07-.08,1.39-.17l.11,1.82c-.47.18-1.21.33-2.14.33-1.1,0-2.01-.36-2.58-1.01-.66-.73-.93-1.89-.93-3.43v-11.04h-2.47v-1.81h2.47v-4.26l2.35-.62Z" fill="#221f1f" stroke-width="0"/><rect x="101.73" y="96.41" width="10.03" height="1.81" transform="translate(-33.98 129.89) rotate(-55.39)" fill="#221f1f" stroke-width="0"/><path d="m17.12,80.52v4.68h4.21v3.29h-4.21v7.43c0,2.14.57,3.23,2.26,3.23.76,0,1.32-.09,1.72-.19l.09,3.36c-.66.25-1.82.45-3.22.45-1.63,0-2.98-.55-3.8-1.44-.95-1.01-1.38-2.62-1.38-4.91v-7.93h-2.49v-3.29h2.49v-3.63l4.33-1.05Z" fill="#221f1f" stroke-width="0"/><path d="m38.19,5.31c-6.45-3.07-14.25-4.28-21.27-2.93-2.17.42-5.31.82-8.04,2.93-2.25,1.75-5.04,5.64-5.86,8.37C-.38,25.05-1.2,36.44,3.86,47.17c-4.9-.33-4.64,5.36-1.95,9.47,2.35,3.6,4.81,4.89,8.77,6.59,5.26,2.25,8.99,6.96,13.35,10.67s15,5.09,18.22,3.3c3.53-1.96,5.77-5.51,7.64-9.08,3.42-6.55,6.85-13.09,10.27-19.64,1.03-1.96,2.09-4.16,1.54-6.31-.53-2.08-2.4-3.49-3.66-5.23-4.54-6.26-.77-16.1-5.62-22.13-2.16-2.68-6.53-2.54-8.81-5.12-6.44-7.31-7.99-6.06-15.48-6.9" fill="#fff" stroke-width="0"/><path d="m93.86.24c-7.4-1.31-15.06,2.81-19.38,8.95-4.32,6.15-5.69,13.96-5.41,21.47.03.81.07,1.65-.24,2.4-.72,1.71-2.88,2.17-4.37,3.27-2.72,1.99-3.03,6.06-1.9,9.24s3.36,5.83,4.99,8.78c2.99,5.39,4.07,11.88,8.13,16.52,5.37,6.14,14.34,7.35,22.49,7.7,2.9.13,5.89.18,8.6-.88,2.37-.93,4.35-2.66,6-4.59,2.48-2.9,4.35-6.34,5.42-10.01.32-1.09.58-2.23,1.26-3.14.77-1.04,1.98-1.65,3.07-2.35,2.53-1.61,4.74-4.05,5.15-7.02.72-5.22-4.17-9.66-4.61-14.91-.46-5.49,4.02-10.74,2.74-16.1-.89-3.73-4.3-6.23-7.46-8.39-7-4.79-14.32-9.7-22.7-10.97" fill="#fff" stroke-width="0"/><path d="m11.87,44.25c.81,3.13,1.61,6.27,2.43,9.4.7,2.68,1.51,5.39,2.94,7.78,1.46,2.45,3.59,4.37,5.9,6,2.42,1.71,5.03,3.14,7.77,4.28,2.64,1.11,5.68,2.29,8.58,1.55,2.64-.67,4.26-2.97,5.8-5.03,1.91-2.56,3.84-5.11,5.66-7.73,1.62-2.35,2.95-4.91,2.91-7.84-.02-1.79-.43-3.56-.8-5.3-.37-1.81-.77-3.61-1.17-5.4-.82-3.6-1.7-7.18-2.64-10.74-.28-1.07-1.94-.62-1.66.46,1.56,5.87,2.97,11.78,4.14,17.74.28,1.44.52,2.93.36,4.4-.15,1.36-.7,2.64-1.36,3.82-1.39,2.46-3.21,4.71-4.89,6.98-.87,1.18-1.74,2.35-2.62,3.52-.71.94-1.47,1.91-2.42,2.61-2.34,1.72-5.27.89-7.76-.03-2.65-.99-5.19-2.27-7.57-3.79-2.25-1.44-4.46-3.11-6.04-5.29-1.73-2.4-2.62-5.24-3.37-8.07-.87-3.25-1.69-6.52-2.53-9.78-.28-1.07-1.94-.62-1.66.46h0Z" fill="#030504" stroke-width="0"/><path d="m11.47,48.77c-1.51-.3-3.34-.47-4.37.95-.85,1.17-.48,2.88.05,4.11,1.1,2.56,3.69,4.34,6.49,4.39,1.11.02,1.11-1.7,0-1.72-1.83-.03-3.55-1.05-4.52-2.6-.47-.74-.85-1.69-.79-2.58.09-1.37,1.76-1.06,2.68-.88,1.08.22,1.54-1.44.46-1.66h0Z" fill="#030504" stroke-width="0"/><path d="m53.09,40.5c.76-.91,1.75-2.11,3.03-1.37.96.55,1.51,1.65,1.67,2.72.37,2.5-1.39,4.65-3.37,5.93-.93.6-.07,2.09.87,1.48,2.82-1.82,5.02-5.01,4.02-8.48-.42-1.48-1.48-2.9-2.96-3.44-1.85-.67-3.36.61-4.47,1.94-.71.84.5,2.07,1.22,1.22h0Z" fill="#030504" stroke-width="0"/><path d="m21.36,45.57c.27-.7.94-1.2,1.66-1.35.35-.07.69-.07,1.03.03.23.07.45.18.66.29.18.1.42.43.35.08.2-.35.4-.71.6-1.06l-.06.02.84.22-.06-.05.13,1.04.03-.04c.58-.94-.9-1.81-1.48-.87l-.03.04c-.18.29-.15.81.13,1.04l.06.05c.23.18.54.34.84.22l.06-.02c.46-.18.7-.56.6-1.06-.14-.72-1.07-1.1-1.66-1.37-.7-.31-1.43-.42-2.19-.3-1.47.23-2.63,1.25-3.15,2.61-.4,1.03,1.26,1.48,1.66.46h0Z" fill="#030504" stroke-width="0"/><path d="m38.14,41.87c.49-1.79,2.61-2.63,4.13-1.43.86.68,2.08-.53,1.22-1.22-2.49-1.98-6.14-.95-7,2.19-.29,1.07,1.37,1.52,1.66.46h0Z" fill="#030504" stroke-width="0"/><path d="m31.35,55.13c2.04.87,4.27.26,5.44-1.67.57-.95-.91-1.81-1.48-.87-.64,1.06-1.91,1.56-3.08,1.05-1.01-.43-1.88,1.05-.87,1.48h0Z" fill="#030504" stroke-width="0"/><path d="m10.25,45.56c-1.07-3.94-1.82-7.96-2.22-12.02-.07-.73-.04-1.62-.55-2.21-.54-.64-1.39-.66-2.15-.49-1.49.33-2.65,1.51-3.12,2.94h1.66c-.85-2.25,1.05-4.11,2.53-5.53.8-.77-.42-1.98-1.22-1.22-1.92,1.85-4.06,4.34-2.98,7.2.3.78,1.38.85,1.66,0,.17-.54.5-.99.96-1.32.23-.17,1.19-.63,1.34-.47s.1.75.12.95c.04.39.08.78.12,1.17.09.76.18,1.51.29,2.27.44,3.1,1.07,6.17,1.89,9.19.29,1.07,1.95.61,1.66-.46h0Z" fill="#030504" stroke-width="0"/><path d="m6.05,23.03c-1.17.16-2.26.53-3.31,1.08l1.18,1.18c.82-1.16,1.7-2.43,3-3.08,1.2-.6,2.59-.54,3.55-1.6.74-.82-.47-2.04-1.22-1.22-.49.53-1.19.64-1.86.82s-1.35.45-1.93.86c-1.26.87-2.16,2.11-3.03,3.35-.53.75.47,1.54,1.18,1.18.92-.48,1.88-.76,2.9-.91,1.09-.15.63-1.81-.46-1.66h0Z" fill="#030504" stroke-width="0"/><path d="m5.88,18.75c1.71-1.31,4.35-.8,5.36,1.13.51.98,2,.11,1.48-.87-1.4-2.69-5.29-3.62-7.72-1.75-.87.67,0,2.16.87,1.48h0Z" fill="#030504" stroke-width="0"/><path d="m9.4,15.06c1.08-.68,2.36-.68,3.44,0,.94.59,1.81-.9.87-1.48-1.58-.99-3.59-.99-5.18,0-.94.59-.07,2.07.87,1.48h0Z" fill="#030504" stroke-width="0"/><path d="m15.15,10.1c-1.11-.47-2.31-.63-3.51-.49l.43,1.6c2-1.18,4.26-1.63,6.56-1.36,1.1.13,1.09-1.59,0-1.72-2.59-.3-5.19.27-7.43,1.59-.68.4-.45,1.71.43,1.6,1.07-.13,2.05.01,3.05.43s1.46-1.23.46-1.66h0Z" fill="#030504" stroke-width="0"/><path d="m20.08,7.39c1.37.28,2.69.7,3.96,1.28.99.45,1.82-.88.87-1.48-.39-.25-.54-1.37-.27-1.74l-.51.4c-.16.04.4.12.49.14.24.06.47.12.71.19.52.14,1.04.27,1.55.41,1.02.27,2.05.54,3.07.81,1.77.47,3.6.98,5.01,2.2.83.72,2.05-.49,1.22-1.22-2.54-2.2-6.12-2.73-9.26-3.56-1.19-.31-3.73-1.53-4.01.46-.18,1.27,0,2.67,1.15,3.41.29-.49.58-.99.87-1.48-1.41-.64-2.86-1.13-4.38-1.45-1.08-.22-1.54,1.43-.46,1.66h0Z" fill="#030504" stroke-width="0"/><path d="m39.27,12.37c2.83,1.03,5.09,3.47,5.91,6.38.19.68.3,1.46,1.1,1.65.65.16,1.42-.31,1.6-.97.02-.06.05-.12.08-.17.13-.22-.05-.25-.54-.09-.03.06.1.4.11.48.07.46.08.94.07,1.41-.02,1-.2,1.96-.5,2.91-.33,1.06,1.33,1.51,1.66.46.33-1.05.52-2.13.56-3.23.03-.88.04-2.01-.38-2.82-.37-.69-1.19-1.08-1.91-.64-.26.16-.69.62-.7.96-.13.18-.04.21.29.12.33.12.43.05.3-.21,0-.18-.12-.47-.18-.64-1.06-3.37-3.71-6.05-7.01-7.26-1.04-.38-1.49,1.28-.46,1.66h0Z" fill="#030504" stroke-width="0"/><path d="m49.4,27.82c1.04,2.31,1.66,4.8,1.86,7.33.08,1.1,1.8,1.11,1.72,0-.22-2.85-.92-5.59-2.09-8.2-.45-1.01-1.94-.13-1.48.87h0Z" fill="#030504" stroke-width="0"/><path d="m13.68,39.45c.04-1.13,1.09-1.64,1.81-2.34.67-.65,1.21-1.43,1.58-2.28.78-1.76.93-3.74.35-5.58-.33-1.05-2-.6-1.66.46.56,1.77.31,3.68-.7,5.24-.51.78-1.22,1.29-1.89,1.91-.76.71-1.17,1.56-1.21,2.59-.04,1.11,1.68,1.11,1.72,0h0Z" fill="#030504" stroke-width="0"/><path d="m18.67,28.31c2.16.03,4.27-.41,6.23-1.29,2.02-.9,3.51-2.38,5.24-3.7,1.37-1.04,3.71-2.19,5.2-.7.68.68.98,1.67,1.39,2.52.43.88.99,1.69,1.65,2.4,1.48,1.59,3.5,2.67,5.64,3.03,1.08.18,1.55-1.48.46-1.66-1.96-.32-3.71-1.26-5.03-2.75-1.32-1.48-1.61-3.7-3.14-4.98-1.49-1.25-3.58-1.14-5.28-.39-1.99.88-3.4,2.64-5.2,3.8-2.14,1.38-4.61,2.06-7.15,2.02-1.11-.02-1.11,1.7,0,1.72h0Z" fill="#030504" stroke-width="0"/><path d="m24.06,50.48c.02-.36.15-.81.49-1.01.45-.25,1.09-.03,1.52.15s.92-.19,1.03-.59c.14-.48-.17-.86-.59-1.03-.93-.38-2.09-.47-2.96.11-.79.53-1.12,1.46-1.18,2.37-.07,1.08,1.61,1.08,1.68,0h0Z" fill="#030504" stroke-width="0"/><path d="m40.25,46.19c.28-1.17,1.15-1.21,2.08-.63.92.57,1.77-.88.85-1.45-.84-.52-1.93-.84-2.89-.47-.89.35-1.44,1.2-1.66,2.1-.25,1.05,1.37,1.5,1.62.45h0Z" fill="#030504" stroke-width="0"/><path d="m116.12,43.2c-.43,3.19-.96,6.36-1.59,9.52-.58,2.91-1.12,5.92-2.13,8.72-.96,2.68-2.73,4.76-5,6.44-2.23,1.65-4.7,3.16-7.27,4.21-5.17,2.1-11.18,1.76-16.03-1.02-4.34-2.48-7.58-6.75-8.83-11.58-.89-3.42-.86-6.98-.78-10.48.08-3.6.16-7.2.24-10.8.02-1.11-1.69-1.11-1.72,0-.08,3.46-.16,6.91-.23,10.37s-.11,6.59.5,9.83c1,5.4,4.15,10.25,8.69,13.35,4.8,3.27,11.06,4.26,16.64,2.68,2.92-.83,5.61-2.36,8.13-4.01,2.36-1.54,4.64-3.36,6.09-5.83,1.79-3.03,2.38-6.72,3.09-10.12.78-3.73,1.41-7.5,1.91-11.28.06-.46-.44-.86-.86-.86-.52,0-.8.4-.86.86h0Z" fill="#030504" stroke-width="0"/><path d="m78.04,24.23c-1.06,5.03-1.06,10.2,0,15.23.22,1.02,1.59.66,1.69-.23.28-2.43,1.35-4.72,2.99-6.53.74-.82-.47-2.04-1.22-1.22-1.97,2.17-3.16,4.83-3.49,7.74.56-.08,1.13-.15,1.69-.23-1-4.72-1-9.6,0-14.32.23-1.08-1.43-1.54-1.66-.46h0Z" fill="#030504" stroke-width="0"/><path d="m87.38,32.07c1.42,2.13.97,5.06-.99,6.7-.85.71.37,1.92,1.22,1.22,2.52-2.1,3.08-6.06,1.26-8.78-.61-.92-2.1-.06-1.48.87h0Z" fill="#030504" stroke-width="0"/><path d="m94.85,32.93c.62,2.64-.35,5.39-2.4,7.14-.84.72.38,1.93,1.22,1.22,2.52-2.14,3.59-5.61,2.84-8.81-.25-1.08-1.91-.62-1.66.46h0Z" fill="#030504" stroke-width="0"/><path d="m100.71,33.77c-.24.04-.08-.06-.07.15,0,.11.07.23.09.34.04.27,0,.58-.03.85-.07.66-.24,1.33-.49,1.95-.5,1.23-1.33,2.25-2.37,3.06-.87.68.35,1.89,1.22,1.22,1.64-1.27,2.81-3.14,3.22-5.18.3-1.51.29-4.45-2.02-4.04-1.09.19-.63,1.85.46,1.66h0Z" fill="#030504" stroke-width="0"/><path d="m104.74,34.17c.64,2.48-.02,5.16-1.77,7.04-.51.55-.15,1.44.61,1.47,1.9.07,3.75-.8,4.87-2.35,1.23-1.69,1.23-3.88,2.19-5.69.52-.98-.97-1.85-1.48-.87-.82,1.54-.94,3.31-1.69,4.87-.73,1.5-2.22,2.37-3.88,2.31.2.49.41.98.61,1.47,2.17-2.33,3.02-5.63,2.22-8.71-.28-1.07-1.94-.62-1.66.46h0Z" fill="#030504" stroke-width="0"/><path d="m112.91,34.91c-.46,2.38-.56,4.8-.27,7.21.13,1.08,1.85,1.1,1.72,0-.28-2.25-.22-4.52.2-6.75.21-1.08-1.45-1.54-1.66-.46h0Z" fill="#030504" stroke-width="0"/><path d="m71.45,38.86c-1.76-2.33-5.21-.9-5.99,1.56-.99,3.12,2.04,5.35,4.36,6.68.96.55,1.83-.93.87-1.48-1.49-.85-3.43-1.91-3.66-3.81-.09-.79.26-1.55.89-2.02.51-.38,1.57-.67,2.04-.05.66.87,2.15.02,1.48-.87h0Z" fill="#030504" stroke-width="0"/><path d="m118.75,47.2c1.74-1.26,4.24.09,3.93,2.28-.39,2.78-3.44,3.75-5.79,4.24-1.08.23-.62,1.89.46,1.66,3.24-.69,7.32-2.58,7.07-6.54-.19-3.11-3.96-4.99-6.53-3.12-.89.64-.03,2.14.87,1.48h0Z" fill="#030504" stroke-width="0"/><path d="m72.69,34.34c.61-2.04.92-4.14.99-6.26.07-2.1-.05-4.24.38-6.31.41-1.95,1.26-3.41,2.7-4.77,1.29-1.22,2.4-2.91,1.43-4.68-.53-.97-2.02-.1-1.48.87.8,1.47-1.76,3.03-2.51,4.01-1.08,1.4-1.66,3.11-1.93,4.85-.3,1.95-.25,3.92-.3,5.89-.06,2.03-.35,4-.93,5.95-.32,1.06,1.34,1.52,1.66.46h0Z" fill="#030504" stroke-width="0"/><path d="m77.95,9.28c.73,2.15,2.58,3.8,4.85,4.11.68.09,1.17-.36,1.06-1.06-.23-1.44-.71-2.8-1.4-4.09-.32.42-.65.84-.97,1.26,1.03.41,2.11.33,3.19.41.71.05,2.15.47,1.81,1.45-.36,1.05,1.3,1.5,1.66.46.46-1.35-.46-2.62-1.65-3.2-1.44-.7-3.09-.19-4.55-.78-.74-.3-1.29.66-.97,1.26.62,1.16,1.02,2.38,1.22,3.68.35-.35.71-.71,1.06-1.06-1.67-.23-3.1-1.28-3.65-2.91-.35-1.04-2.01-.6-1.66.46h0Z" fill="#030504" stroke-width="0"/><path d="m87.21,6.95c3.6,2.43,7.74-.27,11.57.75.75.2,1.31-.61.97-1.26-.73-1.42-1.8-2.58-3.14-3.45-.14.53-.29,1.07-.43,1.6,4.03.29,7.61,2.93,9.22,6.6.44,1.01,1.93.14,1.48-.87-1.87-4.24-6.11-7.12-10.71-7.45-.9-.06-1.1,1.17-.43,1.6,1.09.72,1.93,1.67,2.52,2.84.32-.42.65-.84.97-1.26-1.98-.53-3.95-.18-5.94.1-1.77.25-3.67.36-5.22-.68-.92-.62-1.78.87-.87,1.48h0Z" fill="#030504" stroke-width="0"/><path d="m108.68,13.13c1.97.98,3.93,1.96,5.9,2.94,1.59.79,3.5,1.5,4.72,2.84,1.33,1.47,1.05,3.55.48,5.29-.61,1.86-1.55,3.59-1.84,5.55-.16,1.08,1.49,1.55,1.66.46.58-3.87,4.16-8.17,1.34-11.98-1.16-1.57-2.99-2.39-4.69-3.23-2.24-1.11-4.47-2.23-6.71-3.34-.99-.49-1.86.99-.87,1.48h0Z" fill="#030504" stroke-width="0"/><path d="m118.09,33.58c.31.34-.04,1.26-.08,1.66-.07.69.09,1.34.35,1.97.28.67,1.5,2.48.53,3.07s-.08,2.06.87,1.48c1.56-.95,1.29-2.88.62-4.31-.21-.46-.49-.91-.61-1.4-.11-.47-.02-.89.05-1.36.13-.88.12-1.65-.51-2.34-.75-.81-1.97.4-1.22,1.22h0Z" fill="#030504" stroke-width="0"/><path d="m103.73,48.18c.79-.44,1.78-.89,2.71-.85.46.02.77.23,1.1.54.15.14.3.29.44.44l.17.18c.19.28.23.24.11-.1l.86-.86h-.06c.29.28.57.57.86.86v-.04c.04-1.11-1.68-1.11-1.72,0v.04c-.02.49.41.83.86.86h.06c.49.04.83-.42.86-.86.04-.58-.58-1.11-.95-1.48-.49-.49-1.04-.98-1.72-1.18-1.46-.43-3.18.26-4.45.96-.97.54-.1,2.02.87,1.48h0Z" fill="#030504" stroke-width="0"/><path d="m80.14,43.88c1.18-1.68,3.52-.9,4.54.5.32-.42.65-.84.97-1.26l-.22-.08c-1.05-.36-1.5,1.3-.46,1.66l.22.08c.68.23,1.41-.66.97-1.26-.91-1.25-2.19-2.17-3.77-2.3-1.49-.12-2.89.59-3.74,1.8-.64.91.85,1.77,1.48.87h0Z" fill="#030504" stroke-width="0"/><path d="m89.1,56.24c1.16.7,2.36,1.37,3.73,1.55,1.32.17,2.62-.12,3.78-.76.97-.53.1-2.02-.87-1.48-2.05,1.13-3.93.32-5.77-.79-.95-.57-1.82.92-.87,1.48h0Z" fill="#030504" stroke-width="0"/><path d="m103.72,52.42c.41-.19,1.03-.37,1.47-.15s.42.83.76,1.16c.38.37,1.05.31,1.32-.17l.02-.04c.22-.41.09-.9-.3-1.15l-.03-.02c-.92-.58-1.76.88-.85,1.45l.03.02c-.1-.38-.2-.77-.3-1.15l-.02.04c.44-.06.88-.11,1.32-.17.1.18.1.15,0-.07-.05-.13-.11-.26-.17-.38-.1-.18-.21-.36-.35-.51-.28-.3-.64-.51-1.03-.64-.91-.29-1.87-.05-2.72.33-.98.45-.13,1.9.85,1.45h0Z" fill="#030504" stroke-width="0"/><path d="m80.87,48.98c.41-.27,1.04-.63,1.56-.44.45.17.58.78.97,1.06.48.34,1.06-.04,1.23-.5v-.04c.13-.31-.05-.81-.37-.95h-.03c-.98-.44-1.84,1.01-.85,1.44h.03c-.13-.3-.26-.62-.39-.94v.04c.4-.17.81-.33,1.22-.5.3.21-.04-.2-.09-.28-.12-.17-.25-.33-.4-.47-.33-.3-.75-.48-1.19-.55-.9-.14-1.8.17-2.55.66-.9.59-.06,2.05.85,1.45h0Z" fill="#030504" stroke-width="0"/><path d="m87.24,60.68c1.25,1.02,2.85,1.53,4.42,1.83.86.17,1.74.3,2.62.36.5.04,1.01.04,1.51,0,.2-.02.41-.05.61-.08.14-.02.28-.05.41-.09.24-.01.27-.05.09-.13l-.32-.42c-.09-.21-.04-.11-.16.08-.08.13-.16.26-.23.39-.15.26-.3.53-.46.8-.3.51-.61,1.04-1,1.49-.8.92-1.89,1.41-3.12,1.21-2.66-.43-3.95-3.34-3.19-5.75.27-.86-1.08-1.22-1.34-.37-.61,1.97-.22,4.02,1.08,5.62,1.17,1.44,3.07,2.19,4.91,1.85,1.94-.36,3.09-1.99,4.01-3.59.37-.64,1.41-1.79.6-2.46-.39-.33-.79-.18-1.23-.07-.56.14-1.15.17-1.72.15-1.19-.04-2.4-.24-3.55-.53-1.02-.26-2.11-.6-2.94-1.28-.69-.56-1.68.42-.98.98h0Z" fill="#030504" stroke-width="0"/><path d="m31.42,60.44c1.67.37,3.47.04,5.09-.44.82-.24,1.63-.51,2.41-.86.42-.18.84-.39,1.22-.64.35-.23.65-.6,1.01-.79l-.54.07c-.22-.33-.32-.38-.32-.16,0,.1-.02.2-.02.3-.01.14-.02.27-.03.41-.02.37-.04.75-.07,1.12-.05.69-.14,1.39-.41,2.04-.46,1.13-1.49,1.84-2.68,2.01-2.43.35-4.45-1.64-4.81-3.92-.14-.88-1.48-.51-1.34.37.58,3.67,4.77,6.25,8.18,4.3,1.87-1.07,2.34-3.11,2.48-5.1.03-.51.06-1.02.1-1.53s-.05-.99-.59-1.17c-.47-.15-.79.13-1.11.42-.42.37-.91.66-1.41.9-1.02.49-2.14.83-3.24,1.1s-2.39.48-3.55.23c-.87-.19-1.25,1.15-.37,1.34h0Z" fill="#030504" stroke-width="0"/></g></svg>